# xmcd
# Copyright (C) 1995-1998 Ti Kan
#
# Track frame offsets:
#       150
#       20120
#       33169
#       49220
#       61796
#       78778
#       104903
#       121604
#       147515
#       178873
#       196301
#
# Disc length: 2768 seconds
#
# Revision: 0
# Processed by: cddbd v1.5.2PL0 Copyright (c) Steve Scherf et al.
# Submitted via: CD-Import v1.0
#
DISCID=960ace0b
DTITLE=Mykungfu - Romantic Archeology
DYEAR=2010
DGENRE=
TTITLE0=Please Please Me
TTITLE1=Do What You Do
TTITLE2=Hesitate
TTITLE3=Everything Is Good
TTITLE4=Fear The Light
TTITLE5=Piiteraq
TTITLE6=Substance
TTITLE7=The Silence Of Love
TTITLE8=Loops In A Jar
TTITLE9=Romantic Archeology
TTITLE10=Panic
EXTD=
EXTT0=
EXTT1=
EXTT2=
EXTT3=
EXTT4=
EXTT5=
EXTT6=
EXTT7=
EXTT8=
EXTT9=
EXTT10=
PLAYORDER=
